<mxfile host="app.diagrams.net" modified="2021-08-08T05:55:53.160Z" agent="5.0 (Macintosh; Intel Mac OS X 10_15_7) AppleWebKit/537.36 (KHTML, like Gecko) Chrome/91.0.4472.114 Safari/537.36" etag="91YNYgWQkwv6lXgSQI1B" version="14.7.7" type="github">
  <diagram id="LVl2kgTNP0I5IWYGeISx" name="Page-1">
    <mxGraphModel dx="1298" dy="742" grid="1" gridSize="10" guides="1" tooltips="1" connect="1" arrows="1" fold="1" page="1" pageScale="1" pageWidth="827" pageHeight="1169" math="0" shadow="0">
      <root>
        <mxCell id="0" />
        <mxCell id="1" parent="0" />
        <mxCell id="xPOiUe0bKhu3VHsDtpT_-1" value="前端页面-v1.1版本" style="rounded=0;whiteSpace=wrap;html=1;" vertex="1" parent="1">
          <mxGeometry x="60" y="200" width="120" height="60" as="geometry" />
        </mxCell>
        <mxCell id="xPOiUe0bKhu3VHsDtpT_-2" value="前端页面-v1.2版本" style="rounded=0;whiteSpace=wrap;html=1;" vertex="1" parent="1">
          <mxGeometry x="250" y="200" width="120" height="60" as="geometry" />
        </mxCell>
        <mxCell id="xPOiUe0bKhu3VHsDtpT_-7" value="" style="edgeStyle=orthogonalEdgeStyle;rounded=0;orthogonalLoop=1;jettySize=auto;html=1;" edge="1" parent="1" source="xPOiUe0bKhu3VHsDtpT_-3" target="xPOiUe0bKhu3VHsDtpT_-4">
          <mxGeometry relative="1" as="geometry" />
        </mxCell>
        <mxCell id="xPOiUe0bKhu3VHsDtpT_-3" value="后端服务" style="rounded=0;whiteSpace=wrap;html=1;" vertex="1" parent="1">
          <mxGeometry x="150" y="330" width="120" height="60" as="geometry" />
        </mxCell>
        <mxCell id="xPOiUe0bKhu3VHsDtpT_-4" value="db" style="shape=cylinder3;whiteSpace=wrap;html=1;boundedLbl=1;backgroundOutline=1;size=21;" vertex="1" parent="1">
          <mxGeometry x="160" y="450" width="100" height="80" as="geometry" />
        </mxCell>
        <mxCell id="xPOiUe0bKhu3VHsDtpT_-5" value="" style="endArrow=classic;html=1;exitX=0.5;exitY=1;exitDx=0;exitDy=0;entryX=0.5;entryY=0;entryDx=0;entryDy=0;" edge="1" parent="1" source="xPOiUe0bKhu3VHsDtpT_-1" target="xPOiUe0bKhu3VHsDtpT_-3">
          <mxGeometry width="50" height="50" relative="1" as="geometry">
            <mxPoint x="30" y="420" as="sourcePoint" />
            <mxPoint x="80" y="370" as="targetPoint" />
          </mxGeometry>
        </mxCell>
        <mxCell id="xPOiUe0bKhu3VHsDtpT_-6" value="" style="endArrow=classic;html=1;exitX=0.5;exitY=1;exitDx=0;exitDy=0;entryX=0.5;entryY=0;entryDx=0;entryDy=0;" edge="1" parent="1" source="xPOiUe0bKhu3VHsDtpT_-2" target="xPOiUe0bKhu3VHsDtpT_-3">
          <mxGeometry width="50" height="50" relative="1" as="geometry">
            <mxPoint x="130" y="270" as="sourcePoint" />
            <mxPoint x="250" y="330" as="targetPoint" />
          </mxGeometry>
        </mxCell>
        <mxCell id="xPOiUe0bKhu3VHsDtpT_-8" value="前端页面-v1.1版本" style="rounded=0;whiteSpace=wrap;html=1;" vertex="1" parent="1">
          <mxGeometry x="460" y="195" width="120" height="60" as="geometry" />
        </mxCell>
        <mxCell id="xPOiUe0bKhu3VHsDtpT_-17" value="" style="edgeStyle=orthogonalEdgeStyle;rounded=0;orthogonalLoop=1;jettySize=auto;html=1;" edge="1" parent="1" source="xPOiUe0bKhu3VHsDtpT_-9" target="xPOiUe0bKhu3VHsDtpT_-16">
          <mxGeometry relative="1" as="geometry" />
        </mxCell>
        <mxCell id="xPOiUe0bKhu3VHsDtpT_-9" value="前端页面-v1.2版本" style="rounded=0;whiteSpace=wrap;html=1;" vertex="1" parent="1">
          <mxGeometry x="650" y="195" width="120" height="60" as="geometry" />
        </mxCell>
        <mxCell id="xPOiUe0bKhu3VHsDtpT_-10" value="" style="edgeStyle=orthogonalEdgeStyle;rounded=0;orthogonalLoop=1;jettySize=auto;html=1;" edge="1" parent="1" source="xPOiUe0bKhu3VHsDtpT_-11" target="xPOiUe0bKhu3VHsDtpT_-12">
          <mxGeometry relative="1" as="geometry" />
        </mxCell>
        <mxCell id="xPOiUe0bKhu3VHsDtpT_-11" value="后端服务-v1.1版本" style="rounded=0;whiteSpace=wrap;html=1;" vertex="1" parent="1">
          <mxGeometry x="460" y="325" width="120" height="60" as="geometry" />
        </mxCell>
        <mxCell id="xPOiUe0bKhu3VHsDtpT_-12" value="db" style="shape=cylinder3;whiteSpace=wrap;html=1;boundedLbl=1;backgroundOutline=1;size=21;" vertex="1" parent="1">
          <mxGeometry x="560" y="445" width="100" height="80" as="geometry" />
        </mxCell>
        <mxCell id="xPOiUe0bKhu3VHsDtpT_-13" value="" style="endArrow=classic;html=1;exitX=0.5;exitY=1;exitDx=0;exitDy=0;entryX=0.5;entryY=0;entryDx=0;entryDy=0;" edge="1" parent="1" source="xPOiUe0bKhu3VHsDtpT_-8" target="xPOiUe0bKhu3VHsDtpT_-11">
          <mxGeometry width="50" height="50" relative="1" as="geometry">
            <mxPoint x="430" y="415" as="sourcePoint" />
            <mxPoint x="480" y="365" as="targetPoint" />
          </mxGeometry>
        </mxCell>
        <mxCell id="xPOiUe0bKhu3VHsDtpT_-15" value="" style="shape=singleArrow;whiteSpace=wrap;html=1;" vertex="1" parent="1">
          <mxGeometry x="330" y="320" width="100" height="60" as="geometry" />
        </mxCell>
        <mxCell id="xPOiUe0bKhu3VHsDtpT_-18" style="edgeStyle=orthogonalEdgeStyle;rounded=0;orthogonalLoop=1;jettySize=auto;html=1;" edge="1" parent="1" source="xPOiUe0bKhu3VHsDtpT_-16" target="xPOiUe0bKhu3VHsDtpT_-12">
          <mxGeometry relative="1" as="geometry" />
        </mxCell>
        <mxCell id="xPOiUe0bKhu3VHsDtpT_-16" value="后端服务-v1.2版本" style="rounded=0;whiteSpace=wrap;html=1;" vertex="1" parent="1">
          <mxGeometry x="650" y="325" width="120" height="60" as="geometry" />
        </mxCell>
      </root>
    </mxGraphModel>
  </diagram>
</mxfile>
